HIERARCHY
ROOT Hips
{
	OFFSET 0.000000 0.000000 0.000000
	CHANNELS 6 Xposition Yposition Zposition Yrotation Xrotation Zrotation
	JOINT Chest
	{
		OFFSET 0.000000 -0.009281 11.569106
		CHANNELS 3 Yrotation Xrotation Zrotation
		JOINT Chest2
		{
			OFFSET -0.000000 0.016865 9.269641
			CHANNELS 3 Yrotation Xrotation Zrotation
			JOINT Chest3
			{
				OFFSET -0.000000 0.000001 8.374491
				CHANNELS 3 Yrotation Xrotation Zrotation
				JOINT Chest4
				{
					OFFSET -0.000000 0.000001 8.374493
					CHANNELS 3 Yrotation Xrotation Zrotation
					JOINT Neck
					{
						OFFSET -0.000000 0.000002 12.152554
						CHANNELS 3 Yrotation Xrotation Zrotation
						JOINT Head
						{
							OFFSET -0.000000 0.040101 7.802319
							CHANNELS 3 Yrotation Xrotation Zrotation
							End Site
							{
								OFFSET -0.000000 0.020947 14.853096
							}
						}
					}
					JOINT RightCollar
					{
						OFFSET 2.894404 0.000001 6.791374
						CHANNELS 3 Yrotation Xrotation Zrotation
						JOINT RightShoulder
						{
							OFFSET 13.574684 0.000001 0.000000
							CHANNELS 3 Yrotation Xrotation Zrotation
							JOINT RightElbow
							{
								OFFSET 23.923903 0.000002 0.000000
								CHANNELS 3 Yrotation Xrotation Zrotation
								JOINT RightWrist
								{
									OFFSET 19.846718 0.012767 0.000000
									CHANNELS 3 Yrotation Xrotation Zrotation
									End Site
									{
										OFFSET 14.973145 0.000001 0.000000
									}
								}
							}
						}
					}
					JOINT LeftCollar
					{
						OFFSET -2.894404 0.000001 6.791374
						CHANNELS 3 Yrotation Xrotation Zrotation
						JOINT LeftShoulder
						{
							OFFSET -13.574684 -0.000001 0.000000
							CHANNELS 3 Yrotation Xrotation Zrotation
							JOINT LeftElbow
							{
								OFFSET -23.923903 -0.000002 0.000000
								CHANNELS 3 Yrotation Xrotation Zrotation
								JOINT LeftWrist
								{
									OFFSET -19.846718 0.012763 0.000000
									CHANNELS 3 Yrotation Xrotation Zrotation
									End Site
									{
										OFFSET -14.973145 -0.000001 0.000000
									}
								}
							}
						}
					}
				}
			}
		}
	}
	JOINT RightHip
	{
		OFFSET 9.469263 0.004643 0.045487
		CHANNELS 3 Yrotation Xrotation Zrotation
		JOINT RightKnee
		{
			OFFSET 0.000000 0.002661 -40.478676
			CHANNELS 3 Yrotation Xrotation Zrotation
			JOINT RightAnkle
			{
				OFFSET 0.000000 0.049106 -35.224068
				CHANNELS 3 Yrotation Xrotation Zrotation
				JOINT RightToe
				{
					OFFSET -0.000001 12.539529 -6.151390
					CHANNELS 3 Yrotation Xrotation Zrotation
					End Site
					{
						OFFSET -0.000001 5.044994 -1.291870
					}
				}
			}
		}
	}
	JOINT LeftHip
	{
		OFFSET -9.469263 0.004641 0.045487
		CHANNELS 3 Yrotation Xrotation Zrotation
		JOINT LeftKnee
		{
			OFFSET 0.000000 0.002661 -40.478676
			CHANNELS 3 Yrotation Xrotation Zrotation
			JOINT LeftAnkle
			{
				OFFSET 0.000000 0.049106 -35.224068
				CHANNELS 3 Yrotation Xrotation Zrotation
				JOINT LeftToe
				{
					OFFSET -0.000001 12.539529 -6.151390
					CHANNELS 3 Yrotation Xrotation Zrotation
					End Site
					{
						OFFSET -0.000001 5.044994 -1.291870
					}
				}
			}
		}
	}
}
MOTION
Frames: 11
Frame Time: 0.016667
12.300807 5.258717 83.003342 -7.560628 -4.698844 -112.551996 -1.601579 -3.448982 3.420875 -0.686934 -1.543613 1.536148 -0.686933 -1.543613 1.536151 -0.511292 -1.159446 1.150308 5.952469 -13.334256 -16.847056 4.570743 10.964007 -29.458135 0.933860 3.527167 -8.606601 43.372408 19.571279 52.410470 -2.093441 -6.221399 18.193899 18.559017 -13.590821 -18.449208 -6.385401 -5.379882 -19.480202 -57.715747 -15.766218 -56.234754 -7.040221 -23.823550 -45.524539 -33.261922 -35.088987 30.728335 0.762784 -10.550819 -3.169491 0.667798 -5.594751 0.925054 0.477235 6.683616 2.585064 -0.209909 -0.044523 -0.016311 1.490684 -13.095436 -0.191931 -0.094402 -1.733743 0.821521 -0.383854 6.275481 3.718687 0.077306 0.059840 0.009597 
12.340105 5.198455 83.002518 -7.399809 -4.677662 -112.716283 -1.655181 -3.389421 3.351878 -0.715975 -1.515157 1.510266 -0.715975 -1.515157 1.510268 -0.533208 -1.138147 1.130862 5.862451 -13.163604 -16.930762 4.338076 11.248452 -29.672992 0.602358 3.442527 -8.776294 44.000471 20.912031 54.377629 -2.610920 -4.826401 19.343707 17.144965 -14.062185 -18.250701 -6.190056 -5.608412 -19.709638 -57.698501 -15.014385 -57.843991 -6.208128 -23.556576 -48.141342 -32.489588 -35.231741 30.318407 0.802894 -10.498925 -3.148676 0.655640 -5.430650 0.962470 0.542166 6.637977 2.692289 -0.227968 -0.065541 -0.021632 1.523084 -13.046936 -0.065508 -0.081187 -1.655856 0.843911 -0.425385 6.293032 3.688825 0.064293 0.056286 0.011911 
12.379422 5.145149 83.002518 -7.230884 -4.643286 -112.882079 -1.685849 -3.332757 3.263127 -0.733872 -1.489239 1.474571 -0.733872 -1.489239 1.474567 -0.546785 -1.118709 1.104080 5.739652 -12.979500 -16.987896 4.050600 11.553712 -29.853746 0.294109 3.440383 -8.863478 44.622866 22.271898 56.224051 -3.071775 -3.879281 20.609508 15.381560 -14.599053 -17.762897 -6.032634 -5.820558 -19.895764 -57.695380 -14.304041 -59.374302 -5.443735 -23.086837 -50.700255 -31.551212 -35.354548 29.718396 0.831318 -10.432521 -3.100175 0.647832 -5.270395 0.997049 0.606749 6.582073 2.747935 -0.244132 -0.074992 -0.026340 1.538130 -12.984009 0.047977 -0.062039 -1.567409 0.896853 -0.464882 6.291659 3.658816 0.052475 0.059470 0.013395 
12.415571 5.091352 83.004181 -7.059012 -4.599897 -113.049118 -1.707839 -3.268811 3.173882 -0.749104 -1.460736 1.437992 -0.749104 -1.460737 1.437994 -0.558363 -1.097323 1.076647 5.596153 -12.786320 -17.034447 3.725604 11.872110 -30.025348 0.005017 3.457411 -8.949006 45.130680 23.410596 57.958861 -3.622925 -2.938057 21.928556 13.641617 -15.200576 -17.080399 -5.881785 -6.017764 -20.043579 -57.646114 -13.763352 -60.915869 -4.857984 -22.310699 -53.066171 -30.384885 -35.410187 28.990045 0.847554 -10.351213 -3.028779 0.643903 -5.126371 1.019756 0.673839 6.526766 2.827268 -0.258110 -0.078884 -0.028342 1.545216 -12.915836 0.158526 -0.041822 -1.469798 0.958307 -0.510846 6.276281 3.663663 0.047798 0.068591 0.016153 
12.450579 5.040437 83.007500 -6.893382 -4.543374 -113.212646 -1.732302 -3.254364 3.079268 -0.765461 -1.454748 1.398573 -0.765461 -1.454748 1.398576 -0.570739 -1.092822 1.047054 5.443667 -12.536957 -17.063670 3.377585 12.292933 -30.177015 -0.277848 3.716486 -9.021055 45.416486 24.131941 59.472267 -4.190422 -1.542455 23.249020 11.896518 -15.895332 -16.285252 -5.703644 -6.154767 -20.161462 -57.491082 -13.332680 -62.474948 -4.410803 -21.300312 -55.343575 -29.060037 -35.437815 28.250682 0.858470 -10.260577 -2.929964 0.631843 -4.997684 1.021181 0.741187 6.474860 2.882562 -0.268740 -0.080578 -0.030843 1.549037 -12.857154 0.267078 -0.038404 -1.348460 1.003745 -0.555872 6.237500 3.665547 0.050049 0.085802 0.018461 
12.482155 4.988665 83.010727 -6.728981 -4.474427 -113.370799 -1.748319 -3.294286 3.001999 -0.778425 -1.472822 1.366142 -0.778424 -1.472822 1.366143 -0.580496 -1.106365 1.022678 5.292266 -12.226628 -17.095385 3.016222 12.824303 -30.343754 -0.613297 4.215284 -9.216360 45.572672 24.449888 60.792864 -4.687479 0.184521 24.622654 9.841292 -16.608283 -15.320068 -5.539178 -6.159877 -20.316222 -57.242043 -12.963299 -63.981326 -3.996207 -20.161098 -57.631319 -27.650055 -35.485022 27.576153 0.854181 -10.164784 -2.841205 0.628495 -4.871143 1.030979 0.798294 6.423212 2.929688 -0.273063 -0.082568 -0.032340 1.551249 -12.793237 0.359451 -0.044485 -1.224735 1.065628 -0.610769 6.191901 3.628814 0.060004 0.104848 0.021368 
12.510994 4.940428 83.012146 -6.555211 -4.384648 -113.515968 -1.762564 -3.319819 2.916301 -0.790125 -1.483936 1.329925 -0.790126 -1.483937 1.329924 -0.589334 -1.114681 0.995472 5.127006 -11.911785 -17.110990 2.632083 13.362456 -30.489107 -0.930184 4.655032 -9.407066 45.814508 24.815800 62.076728 -5.095595 1.630833 26.044415 7.384815 -17.196905 -14.052017 -5.328918 -6.235563 -20.445934 -56.957671 -12.568940 -65.457521 -3.527771 -18.944588 -60.004885 -26.224257 -35.620321 26.962737 0.835691 -10.049615 -2.772470 0.630109 -4.747632 1.056259 0.843773 6.377039 2.962989 -0.271200 -0.089405 -0.035817 1.542739 -12.698901 0.423951 -0.057526 -1.117322 1.145072 -0.663912 6.149180 3.593827 0.071084 0.122346 0.024097 
12.535306 4.898105 83.011688 -6.367143 -4.279412 -113.650796 -1.771942 -3.336034 2.817847 -0.798306 -1.490496 1.287909 -0.798306 -1.490496 1.287908 -0.595557 -1.119562 0.963930 4.945284 -11.594355 -17.105150 2.222731 13.904155 -30.603831 -1.172659 4.955106 -9.489605 46.234059 25.453890 63.438189 -5.484732 2.480710 27.447802 4.502869 -17.652673 -12.468219 -5.079973 -6.380406 -20.564513 -56.675230 -12.150686 -66.896116 -2.954283 -17.633405 -62.409071 -24.755683 -35.886087 26.272872 0.805509 -9.909297 -2.703923 0.635238 -4.631346 1.087165 0.884558 6.336570 2.989257 -0.265351 -0.099812 -0.040141 1.527955 -12.571120 0.500201 -0.072294 -1.026895 1.186275 -0.714371 6.110417 3.573580 0.082000 0.136796 0.027068 
12.555837 4.860752 83.010925 -6.166831 -4.166664 -113.779456 -1.761027 -3.338788 2.703456 -0.796202 -1.490767 1.238237 -0.796203 -1.490768 1.238230 -0.594101 -1.119697 0.926681 4.742124 -11.287530 -17.075183 1.782818 14.424738 -30.682829 -1.399120 5.110599 -9.500065 46.764570 26.191400 64.855754 -6.001032 2.881319 28.818467 1.392209 -18.036747 -10.622564 -4.867565 -6.555574 -20.665034 -56.443515 -11.754626 -68.303312 -2.348331 -16.288840 -64.688537 -23.148881 -36.274192 25.421477 0.776133 -9.750175 -2.616783 0.639071 -4.515759 1.098111 0.925055 6.292185 3.009725 -0.259554 -0.108945 -0.045417 1.508189 -12.413870 0.617436 -0.083020 -0.956284 1.180109 -0.763537 6.076930 3.573792 0.091720 0.148213 0.031483 
12.573863 4.827162 83.011528 -5.974401 -4.053649 -113.900638 -1.742199 -3.352492 2.575507 -0.790340 -1.496158 1.182098 -0.790340 -1.496158 1.182102 -0.589829 -1.123654 0.884588 4.538285 -10.987254 -17.020536 1.351032 14.936365 -30.716604 -1.595027 5.329480 -9.447172 47.116766 26.755096 66.068235 -6.643338 3.310663 30.146239 -1.720930 -18.317884 -8.641897 -4.700045 -6.669680 -20.720368 -56.290044 -11.402727 -69.658470 -1.792134 -14.985678 -66.800930 -21.345956 -36.685520 24.438067 0.744932 -9.590409 -2.518166 0.636514 -4.411509 1.076519 0.972393 6.244945 3.052157 -0.253748 -0.111641 -0.050340 1.489904 -12.254287 0.743519 -0.098109 -0.897593 1.155207 -0.813299 6.039059 3.569278 0.101875 0.163509 0.036063 
12.588995 4.797254 83.013153 -5.793163 -3.943290 -114.022857 -1.706144 -3.373018 2.443864 -0.776642 -1.504952 1.123728 -0.776643 -1.504952 1.123730 -0.579683 -1.130149 0.840836 4.329862 -10.695564 -16.950646 0.916953 15.433253 -30.724257 -1.790600 5.499331 -9.351650 47.409385 27.190812 67.238691 -7.275083 3.912715 31.363003 -4.880031 -18.413449 -6.648535 -4.592049 -6.750489 -20.741106 -56.247311 -11.049805 -70.952176 -1.343628 -13.806104 -68.767888 -19.306486 -37.198795 23.298023 0.705880 -9.426456 -2.414292 0.649137 -4.330948 1.039940 1.012823 6.202199 3.077152 -0.250808 -0.111509 -0.054454 1.468058 -12.100860 0.858664 -0.112774 -0.842919 1.133540 -0.863015 5.995758 3.558875 0.111918 0.179668 0.040238 
